<svg xmlns="http://www.w3.org/2000/svg" xmlns:xlink="http://www.w3.org/1999/xlink" width="144" zoomAndPan="magnify" viewBox="0 0 108 112.499997" height="150" preserveAspectRatio="xMidYMid meet" version="1.0"><defs><clipPath id="9de4fac450"><path d="M 0.238281 0 L 107.761719 0 L 107.761719 112.003906 L 0.238281 112.003906 Z M 0.238281 0 " clip-rule="nonzero"/></clipPath><clipPath id="6f3e5b34a1"><path d="M 0.238281 0 L 107.761719 0 L 107.761719 112 L 0.238281 112 Z M 0.238281 0 " clip-rule="nonzero"/></clipPath></defs><g clip-path="url(#9de4fac450)"><path fill="#ffffff" d="M 0.238281 0 L 107.761719 0 L 107.761719 112.003906 L 0.238281 112.003906 Z M 0.238281 0 " fill-opacity="1" fill-rule="nonzero"/><path fill="#ffffff" d="M 0.238281 0 L 107.761719 0 L 107.761719 112.003906 L 0.238281 112.003906 Z M 0.238281 0 " fill-opacity="1" fill-rule="nonzero"/></g><g clip-path="url(#6f3e5b34a1)"><path fill="#000000" d="M 54 0.0859375 C 51.132812 28.894531 28.761719 51.976562 0.238281 56.003906 C 28.753906 60.03125 51.128906 83.109375 54 111.914062 C 56.871094 83.109375 79.242188 60.03125 107.757812 56.003906 C 79.238281 51.972656 56.863281 28.894531 53.996094 0.0859375 Z M 54 0.0859375 " fill-opacity="1" fill-rule="evenodd"/></g></svg>